<svg xmlns="http://www.w3.org/2000/svg" viewBox="0 0 511.66 100.34"><g id="Layer_2" data-name="Layer 2"><g id="Layer_1-2" data-name="Layer 1"><rect x="16.52" y="23.37" width="475.23" height="54.87" rx="19.57"/><path d="M52.52,67.5c-3.08,0-4.61-1.52-4.61-4.56V38.22c0-3,1.53-4.56,4.61-4.56h9.4q8.79,0,13.64,4.42T80.4,50.56q0,8.07-4.84,12.5T61.92,67.5Zm4.22-7.15h4.61q5,0,7.46-2.42c1.62-1.62,2.43-4.07,2.43-7.37s-.82-5.74-2.45-7.34-4.11-2.4-7.44-2.4H56.74Z" style="fill:#fff"/><path d="M106.21,68a18.06,18.06,0,0,1-9-2.18,15.48,15.48,0,0,1-6-6.12A18.77,18.77,0,0,1,89,50.56a18.93,18.93,0,0,1,2.13-9.19,15.12,15.12,0,0,1,6-6.07,19.87,19.87,0,0,1,18,0,15.25,15.25,0,0,1,6,6.07,18.72,18.72,0,0,1,2.16,9.19,18.77,18.77,0,0,1-2.16,9.17,15.44,15.44,0,0,1-6,6.12A18,18,0,0,1,106.21,68Zm0-7.39A7.13,7.13,0,0,0,112.09,58q2.14-2.67,2.14-7.42c0-3.17-.71-5.63-2.11-7.39a7.92,7.92,0,0,0-11.81,0q-2.11,2.64-2.11,7.39T100.31,58A7.11,7.11,0,0,0,106.21,60.64Z" style="fill:#fff"/><path d="M135.15,67.5a4.34,4.34,0,0,1-3.39-1.24,4.07,4.07,0,0,1-1-3.17,7,7,0,0,1,1.73-3.89l14.54-18.29H134.47c-2.52,0-3.79-1.21-3.79-3.65s1.27-3.6,3.79-3.6h18.72a4.42,4.42,0,0,1,3.41,1.25,4,4,0,0,1,1,3.17A7.32,7.32,0,0,1,155.83,42L141.24,60.26h13.39q3.8,0,3.8,3.6t-3.8,3.64Z" style="fill:#fff"/><path d="M171.66,67.5q-4.6,0-4.61-4.56V38.22q0-4.56,4.61-4.56h16.27q3.47,0,3.46,3.36t-3.46,3.46H175.5v6.43h11.38q3.45,0,3.45,3.41t-3.45,3.41H175.5v7h12.43c2.31,0,3.46,1.13,3.46,3.41s-1.15,3.4-3.46,3.4Z" style="fill:#fff"/><path d="M205.62,67.94c-2.75,0-4.13-1.4-4.13-4.18V37.6a4.53,4.53,0,0,1,1.06-3.24,3.63,3.63,0,0,1,2.78-1.13,4.12,4.12,0,0,1,2.38.58,9.8,9.8,0,0,1,1.94,1.92l13.87,17.33V37.36q0-4.12,4.08-4.13a4,4,0,0,1,3.05,1.08,4.23,4.23,0,0,1,1,3V64a4.22,4.22,0,0,1-1,2.91,3.29,3.29,0,0,1-2.59,1.08,4.94,4.94,0,0,1-2.57-.58,8.13,8.13,0,0,1-2-1.92L209.7,48.11V63.76C209.7,66.54,208.34,67.94,205.62,67.94Z" style="fill:#fff"/><path d="M247.4,67.94a4.38,4.38,0,0,1-3.26-1.16A4.52,4.52,0,0,1,243,63.42V37.74a4.55,4.55,0,0,1,1.16-3.36,5.2,5.2,0,0,1,6.52,0,4.55,4.55,0,0,1,1.15,3.36v9h14v-9a4.59,4.59,0,0,1,1.15-3.36,4.46,4.46,0,0,1,3.27-1.15,4.36,4.36,0,0,1,3.24,1.15,4.63,4.63,0,0,1,1.13,3.36V63.42a4.59,4.59,0,0,1-1.13,3.36,4.32,4.32,0,0,1-3.24,1.16,4.4,4.4,0,0,1-3.29-1.16,4.59,4.59,0,0,1-1.13-3.36V54h-14v9.45a4.59,4.59,0,0,1-1.12,3.36A4.41,4.41,0,0,1,247.4,67.94Z" style="fill:#fff"/><path d="M286.81,67.94a3.48,3.48,0,0,1-3.32-5.38l12-25.73a6.46,6.46,0,0,1,2.11-2.73,5.28,5.28,0,0,1,5.81,0,6.54,6.54,0,0,1,2.11,2.73l11.95,25.73c.74,1.57.77,2.86.1,3.86a3.55,3.55,0,0,1-3.17,1.52,4.44,4.44,0,0,1-2.95-.87,7.18,7.18,0,0,1-1.85-2.78L308,60.64H292.9l-1.53,3.65a8.82,8.82,0,0,1-1.78,2.78A3.91,3.91,0,0,1,286.81,67.94Zm13.58-25.06-4.61,11h9.31l-4.6-11Z" style="fill:#fff"/><path d="M342.07,68a20.12,20.12,0,0,1-9.64-2.16,14.79,14.79,0,0,1-6.17-6.09,19,19,0,0,1-2.14-9.22,18.82,18.82,0,0,1,2.14-9.19,14.8,14.8,0,0,1,6.17-6.07,20.12,20.12,0,0,1,9.64-2.16,21.91,21.91,0,0,1,4.59.5,15.42,15.42,0,0,1,4.2,1.51A4.14,4.14,0,0,1,352.73,37a3.94,3.94,0,0,1,.38,2.25,4.11,4.11,0,0,1-.84,2.07,3.4,3.4,0,0,1-1.75,1.22,3.11,3.11,0,0,1-2.3-.31,13,13,0,0,0-5.81-1.39q-4.47,0-6.72,2.52c-1.51,1.68-2.26,4.08-2.26,7.22s.75,5.59,2.26,7.27,3.74,2.52,6.72,2.52A12.63,12.63,0,0,0,345.1,60a13.2,13.2,0,0,0,2.83-1,4,4,0,0,1,2.57-.34,3.49,3.49,0,0,1,1.85,1.15,4,4,0,0,1,.88,2,4.06,4.06,0,0,1-.31,2.24,3.7,3.7,0,0,1-1.77,1.77A14.81,14.81,0,0,1,347,67.46,21.8,21.8,0,0,1,342.07,68Z" style="fill:#fff"/><path d="M367,67.94a4,4,0,0,1-4.41-4.47V37.7a4.43,4.43,0,1,1,8.83,0V48.16h.1L383.19,35.3a8,8,0,0,1,1.94-1.52,5,5,0,0,1,2.33-.55,3.69,3.69,0,0,1,2.88,1,3.21,3.21,0,0,1,.82,2.43,4,4,0,0,1-1.11,2.49l-10,10.56,10.56,12a4.24,4.24,0,0,1,1.25,2.83,3.25,3.25,0,0,1-1,2.42,3.93,3.93,0,0,1-2.88,1,4.82,4.82,0,0,1-2.64-.65,9.72,9.72,0,0,1-2.11-2l-11.71-13.1h-.1V63.47a4.53,4.53,0,0,1-1.13,3.31A4.4,4.4,0,0,1,367,67.94Z" style="fill:#fff"/><path d="M405.33,67.5q-4.6,0-4.61-4.56V38.22q0-4.56,4.61-4.56H421.6q3.47,0,3.46,3.36t-3.46,3.46H409.17v6.43h11.38q3.45,0,3.45,3.41t-3.45,3.41H409.17v7H421.6c2.31,0,3.46,1.13,3.46,3.41s-1.15,3.4-3.46,3.4Z" style="fill:#fff"/><path d="M439.49,67.94a4.4,4.4,0,0,1-3.26-1.16,4.46,4.46,0,0,1-1.15-3.31V38.13a4,4,0,0,1,4.46-4.47h11.81q5.76,0,8.9,2.81a9.9,9.9,0,0,1,3.15,7.8,10.43,10.43,0,0,1-1.9,6.36A9.85,9.85,0,0,1,456,54.21a7,7,0,0,1,4.31,3.69l2.41,4.32a5.21,5.21,0,0,1,.69,2.74,3,3,0,0,1-1,2.14,4.2,4.2,0,0,1-2.83.84,5.58,5.58,0,0,1-3.05-.75,6.28,6.28,0,0,1-2.09-2.42l-4.37-8a3.22,3.22,0,0,0-1.46-1.46,4.86,4.86,0,0,0-2-.41h-2.64v8.59a4.53,4.53,0,0,1-1.13,3.31A4.4,4.4,0,0,1,439.49,67.94Zm4.42-19.3h5.85q5.24,0,5.24-4.13t-5.24-4.08h-5.85Z" style="fill:#fff"/><rect width="511.66" height="100.34" style="fill:none"/></g></g></svg>