<?xml version="1.0" encoding="UTF-8"?>
<svg xmlns="http://www.w3.org/2000/svg" viewBox="0 0 336.9 61.71">
  <defs>
    <style>
      .cls-1 {
        fill: #ec297b;
      }

      .cls-2 {
        fill: #fff;
      }

      .cls-3 {
        mix-blend-mode: multiply;
        opacity: .08;
      }

      .cls-4 {
        fill: #231f20;
      }

      .cls-5 {
        isolation: isolate;
      }

      .cls-6 {
        fill: #ec1c24;
      }
    </style>
  </defs>
  <g class="cls-5">
    <g id="Layer_2" data-name="Layer 2">
      <g id="Layer_1-2" data-name="Layer 1">
        <g>
          <g>
            <path class="cls-1" d="M18.38,38.88c-1.1,0-1.94-.29-2.52-.86s-.86-1.42-.86-2.52v-18.07c0-1.1.29-1.94.86-2.52s1.41-.86,2.52-.86h6.87c4.32,0,7.66,1.08,10.02,3.24,2.36,2.16,3.54,5.21,3.54,9.16,0,2-.3,3.76-.9,5.29-.6,1.53-1.47,2.82-2.62,3.89-1.15,1.07-2.57,1.88-4.25,2.43s-3.61.83-5.79.83h-6.87ZM21.48,33.63h3.38c1.24,0,2.32-.15,3.22-.46.9-.31,1.66-.75,2.25-1.34.6-.59,1.04-1.33,1.34-2.22.29-.89.44-1.95.44-3.17,0-2.42-.6-4.22-1.8-5.39-1.2-1.17-3.02-1.76-5.46-1.76h-3.38v14.34Z"/>
            <path class="cls-1" d="M58.19,39.3c-2.51,0-4.71-.54-6.61-1.62-1.89-1.08-3.37-2.58-4.44-4.51-1.07-1.93-1.6-4.17-1.6-6.73,0-1.95.3-3.71.9-5.27.6-1.56,1.46-2.9,2.59-4.02,1.13-1.12,2.47-1.99,4.02-2.61,1.55-.62,3.26-.93,5.14-.93,2.51,0,4.72.53,6.62,1.6,1.9,1.07,3.38,2.56,4.42,4.47,1.04,1.92,1.57,4.16,1.57,6.75,0,1.93-.3,3.68-.9,5.25-.6,1.57-1.46,2.92-2.57,4.05-1.12,1.13-2.45,2-4,2.62-1.55.62-3.27.93-5.14.93ZM58.19,33.84c1.25,0,2.3-.29,3.17-.88.87-.59,1.54-1.43,2.01-2.54.47-1.1.7-2.43.7-3.98,0-2.3-.52-4.1-1.55-5.41-1.03-1.3-2.48-1.96-4.33-1.96-1.22,0-2.27.29-3.15.86-.88.58-1.56,1.42-2.04,2.52-.48,1.1-.72,2.43-.72,3.98,0,2.33.53,4.14,1.59,5.44,1.06,1.3,2.5,1.96,4.33,1.96Z"/>
            <path class="cls-1" d="M79.93,38.88c-.82,0-1.5-.18-2.03-.55-.53-.36-.89-.84-1.08-1.43-.19-.59-.19-1.24-.02-1.96.18-.72.57-1.44,1.18-2.17l12.16-15.29v1.87h-10.71c-.89,0-1.58-.23-2.06-.69-.48-.46-.72-1.12-.72-1.99s.24-1.53.72-1.97c.48-.45,1.17-.67,2.06-.67h13.74c.82,0,1.5.18,2.03.55s.89.84,1.08,1.43c.19.59.19,1.24,0,1.96-.19.72-.58,1.44-1.16,2.17l-12.16,15.29v-1.87h11.27c.89,0,1.57.23,2.04.69.47.46.7,1.12.7,1.99s-.24,1.5-.7,1.96c-.47.46-1.15.69-2.04.69h-14.3Z"/>
            <path class="cls-1" d="M106.57,38.88c-1.1,0-1.94-.29-2.52-.86-.58-.58-.86-1.42-.86-2.52v-18.07c0-1.1.29-1.94.86-2.52.58-.58,1.42-.86,2.52-.86h11.98c.8,0,1.42.21,1.85.63.43.42.65,1.03.65,1.83s-.22,1.45-.65,1.88c-.43.44-1.05.65-1.85.65h-9.2v4.72h8.39c.82,0,1.44.21,1.87.63.42.42.63,1.04.63,1.87s-.21,1.42-.63,1.85-1.05.65-1.87.65h-8.39v5.11h9.2c.8,0,1.42.22,1.85.65s.65,1.05.65,1.85-.22,1.44-.65,1.87-1.05.63-1.85.63h-11.98Z"/>
            <path class="cls-1" d="M131.37,39.23c-.99,0-1.74-.27-2.25-.81-.52-.54-.77-1.3-.77-2.29v-19.24c0-1.01.26-1.8.77-2.36.52-.56,1.21-.85,2.08-.85.73,0,1.3.15,1.73.44.42.29.89.77,1.41,1.43l11.17,13.95h-.99v-12.75c0-.96.25-1.71.76-2.25.5-.54,1.25-.81,2.24-.81s1.74.27,2.25.81c.52.54.78,1.29.78,2.25v19.52c0,.87-.24,1.58-.72,2.13-.48.55-1.12.83-1.92.83s-1.43-.15-1.88-.44c-.46-.29-.96-.77-1.5-1.43l-11.13-13.99h.99v12.75c0,.99-.25,1.75-.76,2.29-.5.54-1.25.81-2.24.81Z"/>
            <path class="cls-1" d="M161.85,39.23c-1.06,0-1.87-.29-2.43-.88-.56-.59-.85-1.41-.85-2.47v-18.85c0-1.06.28-1.88.85-2.47.56-.59,1.37-.88,2.43-.88s1.8.29,2.36.88c.56.59.84,1.41.84,2.47v6.62h10.25v-6.62c0-1.06.28-1.88.85-2.47.56-.59,1.35-.88,2.36-.88s1.86.29,2.41.88c.55.59.83,1.41.83,2.47v18.85c0,1.06-.28,1.88-.83,2.47-.55.59-1.36.88-2.41.88s-1.8-.29-2.36-.88c-.56-.59-.85-1.41-.85-2.47v-6.94h-10.25v6.94c0,1.06-.28,1.88-.83,2.47-.55.59-1.35.88-2.38.88Z"/>
            <path class="cls-1" d="M190.95,39.23c-.73,0-1.34-.18-1.83-.53-.49-.35-.8-.83-.92-1.43-.12-.6-.01-1.27.32-2.03l8.77-18.88c.42-.92.94-1.59,1.55-2.03.61-.43,1.33-.65,2.15-.65s1.5.22,2.1.65c.6.43,1.11,1.11,1.53,2.03l8.81,18.88c.35.75.48,1.43.37,2.04-.11.61-.39,1.09-.86,1.43-.47.34-1.07.51-1.8.51-.89,0-1.6-.22-2.11-.67-.52-.45-.98-1.14-1.37-2.08l-1.9-4.44,2.5,1.83h-14.55l2.47-1.83-1.9,4.44c-.4.96-.82,1.66-1.27,2.1s-1.13.65-2.04.65ZM200.92,20.81l-4.09,9.76-.99-1.69h10.25l-1.02,1.69-4.09-9.76h-.07Z"/>
            <path class="cls-1" d="M232.14,39.3c-2.75,0-5.11-.53-7.08-1.6-1.97-1.07-3.49-2.56-4.56-4.47-1.07-1.91-1.6-4.17-1.6-6.78,0-1.95.3-3.71.9-5.27.6-1.56,1.47-2.9,2.62-4.02,1.15-1.12,2.54-1.99,4.18-2.61,1.63-.62,3.48-.93,5.55-.93,1.06,0,2.17.13,3.33.39,1.16.26,2.19.62,3.08,1.09.68.35,1.15.81,1.39,1.36.25.55.33,1.12.25,1.69-.08.58-.29,1.08-.62,1.51s-.75.73-1.27.9c-.52.17-1.09.08-1.73-.25-.68-.35-1.37-.6-2.08-.76-.7-.15-1.43-.23-2.18-.23-1.43,0-2.64.28-3.61.83-.97.55-1.71,1.35-2.2,2.4-.49,1.05-.74,2.34-.74,3.89s.25,2.85.74,3.91c.49,1.06,1.23,1.86,2.2,2.41.97.55,2.18.83,3.61.83.66,0,1.33-.07,2.03-.21.69-.14,1.38-.38,2.06-.71.68-.3,1.3-.39,1.87-.26.56.13,1.02.41,1.36.85.34.43.56.93.65,1.48.09.55.02,1.1-.23,1.64-.25.54-.67.97-1.29,1.3-.82.49-1.84.89-3.05,1.18-1.21.29-2.4.44-3.58.44Z"/>
            <path class="cls-1" d="M250.6,39.23c-1.06,0-1.87-.29-2.43-.88-.56-.59-.85-1.4-.85-2.43v-18.92c0-1.08.28-1.9.85-2.47.56-.56,1.37-.85,2.43-.85s1.8.28,2.36.85c.56.56.84,1.39.84,2.47v7.68h.07l8.56-9.44c.45-.47.92-.84,1.43-1.11.5-.27,1.07-.4,1.71-.4.96,0,1.67.25,2.11.76.45.5.65,1.09.62,1.76s-.32,1.29-.86,1.85l-8.49,9.05.04-2.68,8.91,10.11c.61.71.92,1.42.92,2.13s-.25,1.32-.74,1.8c-.49.48-1.2.72-2.11.72-.8,0-1.44-.16-1.92-.49s-.99-.81-1.53-1.44l-8.63-9.65h-.07v8.28c0,1.03-.28,1.84-.83,2.43-.55.59-1.35.88-2.38.88Z"/>
            <path class="cls-1" d="M279.31,38.88c-1.1,0-1.94-.29-2.52-.86s-.86-1.42-.86-2.52v-18.07c0-1.1.29-1.94.86-2.52s1.42-.86,2.52-.86h11.98c.8,0,1.42.21,1.85.63.43.42.65,1.03.65,1.83s-.22,1.45-.65,1.88c-.43.44-1.05.65-1.85.65h-9.2v4.72h8.38c.82,0,1.45.21,1.87.63.42.42.63,1.04.63,1.87s-.21,1.42-.63,1.85c-.42.43-1.04.65-1.87.65h-8.38v5.11h9.2c.8,0,1.42.22,1.85.65s.65,1.05.65,1.85-.22,1.44-.65,1.87-1.05.63-1.85.63h-11.98Z"/>
            <path class="cls-1" d="M304.36,39.23c-1.06,0-1.87-.29-2.43-.88-.56-.59-.85-1.4-.85-2.43v-18.57c0-1.08.29-1.9.86-2.47.58-.56,1.39-.85,2.45-.85h8.67c2.79,0,4.96.69,6.48,2.06,1.53,1.37,2.29,3.28,2.29,5.73,0,1.6-.34,2.97-1.02,4.12-.68,1.15-1.68,2.04-3,2.66-1.32.62-2.9.93-4.76.93l.25-.63h1.73c.99,0,1.87.24,2.64.72s1.42,1.22,1.94,2.2l1.73,3.17c.4.7.58,1.37.55,2.01-.04.63-.28,1.16-.74,1.58s-1.17.63-2.13.63c-.89,0-1.63-.19-2.2-.56-.58-.38-1.09-.96-1.53-1.76l-3.21-5.95c-.28-.49-.64-.84-1.07-1.04s-.93-.3-1.5-.3h-1.94v6.31c0,1.03-.28,1.84-.83,2.43-.55.59-1.35.88-2.38.88ZM307.57,25.03h4.3c1.25,0,2.19-.25,2.84-.74.65-.49.97-1.25.97-2.25s-.32-1.8-.97-2.29c-.65-.49-1.59-.74-2.84-.74h-4.3v6.02Z"/>
          </g>
          <g class="cls-3">
            <path class="cls-4" d="M6.31,42.23c0,12.12,9.62,20.68,21.51,19.34,93.54-8.94,187.72-8.94,281.26,0,11.89,1.33,21.51-7.22,21.51-19.34v-7.53c0-12.12-9.62-20.68-21.51-19.34-93.54,8.94-187.72,8.94-281.26,0-11.88-1.33-21.51,7.22-21.51,19.34v7.53Z"/>
          </g>
          <path class="cls-6" d="M0,29.3c0,9.27,7.6,17.49,16.98,18.27,100.85,7.13,202.09,7.13,302.94,0,9.38-.78,16.98-9,16.98-18.27v-5.68c0-9.27-7.6-17.49-16.98-18.27C219.06-1.78,117.83-1.78,16.98,5.35,7.6,6.13,0,14.35,0,23.62v5.68Z"/>
          <g>
            <path class="cls-2" d="M18.38,38.88c-1.1,0-1.94-.29-2.52-.86s-.86-1.42-.86-2.52v-18.07c0-1.1.29-1.94.86-2.52s1.41-.86,2.52-.86h6.87c4.32,0,7.66,1.08,10.02,3.24,2.36,2.16,3.54,5.21,3.54,9.16,0,2-.3,3.76-.9,5.29-.6,1.53-1.47,2.82-2.62,3.89-1.15,1.07-2.57,1.88-4.25,2.43s-3.61.83-5.79.83h-6.87ZM21.48,33.63h3.38c1.24,0,2.32-.15,3.22-.46.9-.31,1.66-.75,2.25-1.34.6-.59,1.04-1.33,1.34-2.22.29-.89.44-1.95.44-3.17,0-2.42-.6-4.22-1.8-5.39-1.2-1.17-3.02-1.76-5.46-1.76h-3.38v14.34Z"/>
            <path class="cls-2" d="M58.19,39.3c-2.51,0-4.71-.54-6.61-1.62-1.89-1.08-3.37-2.58-4.44-4.51-1.07-1.93-1.6-4.17-1.6-6.73,0-1.95.3-3.71.9-5.27.6-1.56,1.46-2.9,2.59-4.02,1.13-1.12,2.47-1.99,4.02-2.61,1.55-.62,3.26-.93,5.14-.93,2.51,0,4.72.53,6.62,1.6,1.9,1.07,3.38,2.56,4.42,4.47,1.04,1.92,1.57,4.16,1.57,6.75,0,1.93-.3,3.68-.9,5.25-.6,1.57-1.46,2.92-2.57,4.05-1.12,1.13-2.45,2-4,2.62-1.55.62-3.27.93-5.14.93ZM58.19,33.84c1.25,0,2.3-.29,3.17-.88.87-.59,1.54-1.43,2.01-2.54.47-1.1.7-2.43.7-3.98,0-2.3-.52-4.1-1.55-5.41-1.03-1.3-2.48-1.96-4.33-1.96-1.22,0-2.27.29-3.15.86-.88.58-1.56,1.42-2.04,2.52-.48,1.1-.72,2.43-.72,3.98,0,2.33.53,4.14,1.59,5.44,1.06,1.3,2.5,1.96,4.33,1.96Z"/>
            <path class="cls-2" d="M79.93,38.88c-.82,0-1.5-.18-2.03-.55-.53-.36-.89-.84-1.08-1.43-.19-.59-.19-1.24-.02-1.96.18-.72.57-1.44,1.18-2.17l12.16-15.29v1.87h-10.71c-.89,0-1.58-.23-2.06-.69-.48-.46-.72-1.12-.72-1.99s.24-1.53.72-1.97c.48-.45,1.17-.67,2.06-.67h13.74c.82,0,1.5.18,2.03.55s.89.84,1.08,1.43c.19.59.19,1.24,0,1.96-.19.72-.58,1.44-1.16,2.17l-12.16,15.29v-1.87h11.27c.89,0,1.57.23,2.04.69.47.46.7,1.12.7,1.99s-.24,1.5-.7,1.96c-.47.46-1.15.69-2.04.69h-14.3Z"/>
            <path class="cls-2" d="M106.57,38.88c-1.1,0-1.94-.29-2.52-.86-.58-.58-.86-1.42-.86-2.52v-18.07c0-1.1.29-1.94.86-2.52.58-.58,1.42-.86,2.52-.86h11.98c.8,0,1.42.21,1.85.63.43.42.65,1.03.65,1.83s-.22,1.45-.65,1.88c-.43.44-1.05.65-1.85.65h-9.2v4.72h8.39c.82,0,1.44.21,1.87.63.42.42.63,1.04.63,1.87s-.21,1.42-.63,1.85-1.05.65-1.87.65h-8.39v5.11h9.2c.8,0,1.42.22,1.85.65s.65,1.05.65,1.85-.22,1.44-.65,1.87-1.05.63-1.85.63h-11.98Z"/>
            <path class="cls-2" d="M131.37,39.23c-.99,0-1.74-.27-2.25-.81-.52-.54-.77-1.3-.77-2.29v-19.24c0-1.01.26-1.8.77-2.36.52-.56,1.21-.85,2.08-.85.73,0,1.3.15,1.73.44.42.29.89.77,1.41,1.43l11.17,13.95h-.99v-12.75c0-.96.25-1.71.76-2.25.5-.54,1.25-.81,2.24-.81s1.74.27,2.25.81c.52.54.78,1.29.78,2.25v19.52c0,.87-.24,1.58-.72,2.13-.48.55-1.12.83-1.92.83s-1.43-.15-1.88-.44c-.46-.29-.96-.77-1.5-1.43l-11.13-13.99h.99v12.75c0,.99-.25,1.75-.76,2.29-.5.54-1.25.81-2.24.81Z"/>
            <path class="cls-2" d="M161.85,39.23c-1.06,0-1.87-.29-2.43-.88-.56-.59-.85-1.41-.85-2.47v-18.85c0-1.06.28-1.88.85-2.47.56-.59,1.37-.88,2.43-.88s1.8.29,2.36.88c.56.59.84,1.41.84,2.47v6.62h10.25v-6.62c0-1.06.28-1.88.85-2.47.56-.59,1.35-.88,2.36-.88s1.86.29,2.41.88c.55.59.83,1.41.83,2.47v18.85c0,1.06-.28,1.88-.83,2.47-.55.59-1.36.88-2.41.88s-1.8-.29-2.36-.88c-.56-.59-.85-1.41-.85-2.47v-6.94h-10.25v6.94c0,1.06-.28,1.88-.83,2.47-.55.59-1.35.88-2.38.88Z"/>
            <path class="cls-2" d="M190.95,39.23c-.73,0-1.34-.18-1.83-.53-.49-.35-.8-.83-.92-1.43-.12-.6-.01-1.27.32-2.03l8.77-18.88c.42-.92.94-1.59,1.55-2.03.61-.43,1.33-.65,2.15-.65s1.5.22,2.1.65c.6.43,1.11,1.11,1.53,2.03l8.81,18.88c.35.75.48,1.43.37,2.04-.11.61-.39,1.09-.86,1.43-.47.34-1.07.51-1.8.51-.89,0-1.6-.22-2.11-.67-.52-.45-.98-1.14-1.37-2.08l-1.9-4.44,2.5,1.83h-14.55l2.47-1.83-1.9,4.44c-.4.96-.82,1.66-1.27,2.1s-1.13.65-2.04.65ZM200.92,20.81l-4.09,9.76-.99-1.69h10.25l-1.02,1.69-4.09-9.76h-.07Z"/>
            <path class="cls-2" d="M232.14,39.3c-2.75,0-5.11-.53-7.08-1.6-1.97-1.07-3.49-2.56-4.56-4.47-1.07-1.91-1.6-4.17-1.6-6.78,0-1.95.3-3.71.9-5.27.6-1.56,1.47-2.9,2.62-4.02,1.15-1.12,2.54-1.99,4.18-2.61,1.63-.62,3.48-.93,5.55-.93,1.06,0,2.17.13,3.33.39,1.16.26,2.19.62,3.08,1.09.68.35,1.15.81,1.39,1.36.25.55.33,1.12.25,1.69-.08.58-.29,1.08-.62,1.51s-.75.73-1.27.9c-.52.17-1.09.08-1.73-.25-.68-.35-1.37-.6-2.08-.76-.7-.15-1.43-.23-2.18-.23-1.43,0-2.64.28-3.61.83-.97.55-1.71,1.35-2.2,2.4-.49,1.05-.74,2.34-.74,3.89s.25,2.85.74,3.91c.49,1.06,1.23,1.86,2.2,2.41.97.55,2.18.83,3.61.83.66,0,1.33-.07,2.03-.21.69-.14,1.38-.38,2.06-.71.68-.3,1.3-.39,1.87-.26.56.13,1.02.41,1.36.85.34.43.56.93.65,1.48.09.55.02,1.1-.23,1.64-.25.54-.67.97-1.29,1.3-.82.49-1.84.89-3.05,1.18-1.21.29-2.4.44-3.58.44Z"/>
            <path class="cls-2" d="M250.6,39.23c-1.06,0-1.87-.29-2.43-.88-.56-.59-.85-1.4-.85-2.43v-18.92c0-1.08.28-1.9.85-2.47.56-.56,1.37-.85,2.43-.85s1.8.28,2.36.85c.56.56.84,1.39.84,2.47v7.68h.07l8.56-9.44c.45-.47.92-.84,1.43-1.11.5-.27,1.07-.4,1.71-.4.96,0,1.67.25,2.11.76.45.5.65,1.09.62,1.76s-.32,1.29-.86,1.85l-8.49,9.05.04-2.68,8.91,10.11c.61.71.92,1.42.92,2.13s-.25,1.32-.74,1.8c-.49.48-1.2.72-2.11.72-.8,0-1.44-.16-1.92-.49s-.99-.81-1.53-1.44l-8.63-9.65h-.07v8.28c0,1.03-.28,1.84-.83,2.43-.55.59-1.35.88-2.38.88Z"/>
            <path class="cls-2" d="M279.31,38.88c-1.1,0-1.94-.29-2.52-.86s-.86-1.42-.86-2.52v-18.07c0-1.1.29-1.94.86-2.52s1.42-.86,2.52-.86h11.98c.8,0,1.42.21,1.85.63.43.42.65,1.03.65,1.83s-.22,1.45-.65,1.88c-.43.44-1.05.65-1.85.65h-9.2v4.72h8.38c.82,0,1.45.21,1.87.63.42.42.63,1.04.63,1.87s-.21,1.42-.63,1.85c-.42.43-1.04.65-1.87.65h-8.38v5.11h9.2c.8,0,1.42.22,1.85.65s.65,1.05.65,1.85-.22,1.44-.65,1.87-1.05.63-1.85.63h-11.98Z"/>
            <path class="cls-2" d="M304.36,39.23c-1.06,0-1.87-.29-2.43-.88-.56-.59-.85-1.4-.85-2.43v-18.57c0-1.08.29-1.9.86-2.47.58-.56,1.39-.85,2.45-.85h8.67c2.79,0,4.96.69,6.48,2.06,1.53,1.37,2.29,3.28,2.29,5.73,0,1.6-.34,2.97-1.02,4.12-.68,1.15-1.68,2.04-3,2.66-1.32.62-2.9.93-4.76.93l.25-.63h1.73c.99,0,1.87.24,2.64.72s1.42,1.22,1.94,2.2l1.73,3.17c.4.7.58,1.37.55,2.01-.04.63-.28,1.16-.74,1.58s-1.17.63-2.13.63c-.89,0-1.63-.19-2.2-.56-.58-.38-1.09-.96-1.53-1.76l-3.21-5.95c-.28-.49-.64-.84-1.07-1.04s-.93-.3-1.5-.3h-1.94v6.31c0,1.03-.28,1.84-.83,2.43-.55.59-1.35.88-2.38.88ZM307.57,25.03h4.3c1.25,0,2.19-.25,2.84-.74.65-.49.97-1.25.97-2.25s-.32-1.8-.97-2.29c-.65-.49-1.59-.74-2.84-.74h-4.3v6.02Z"/>
          </g>
        </g>
      </g>
    </g>
  </g>
</svg>