<svg xmlns="http://www.w3.org/2000/svg"><symbol id="tiktok" viewBox="0 0 24 24"><path d="m22,7.105v-.842c-1.101,0-2.126-.314-2.986-.851,0,0,0,0-.001-.001-1.235-.773-2.127-2.009-2.405-3.45h0c-.06-.312-.093-.632-.093-.96h-3.943l-.006,15.158c-.066,1.697-1.523,3.06-3.308,3.06-.555,0-1.077-.133-1.537-.365h0c-1.055-.533-1.777-1.593-1.777-2.814,0-1.753,1.487-3.18,3.314-3.18.341,0,.668.054.978.147v-2.965c-3.65.082-6.643,2.76-7.041,6.181.397-3.421,3.39-6.1,7.041-6.182v-.896c-.32-.042-.646-.068-.978-.068-4.002,0-7.257,3.123-7.257,6.962,0,2.354,1.226,4.438,3.096,5.699,0,0,.001.001.002.002,1.179.794,2.613,1.262,4.159,1.262,4.002,0,7.257-3.123,7.257-6.962v-7.686c1.546,1.065,3.441,1.692,5.486,1.692v-2.94h0Zm-8.285,10.013c-.066,1.697-1.523,3.06-3.308,3.06h0c-.204,0-.404-.018-.598-.052.194.034.394.052.598.052,1.785,0,3.242-1.362,3.308-3.06l.006-15.158h0l-.006,15.158Z" /></symbol><symbol id="pinterest" viewBox="0 0 24 24"><path d="m1,12c0,4.696,2.943,8.706,7.086,10.283-.101-.859-.208-2.275.023-3.269.199-.854,1.284-5.443,1.284-5.443,0,0-.327-.655-.327-1.626,0-1.522.882-2.658,1.981-2.658.935,0,1.386.701,1.386,1.542,0,.94-.599,2.344-.907,3.646-.258,1.09.547,1.979,1.622,1.979,1.946,0,3.443-2.052,3.443-5.015,0-2.623-1.885-4.455-4.575-4.455-3.115,0-4.944,2.337-4.944,4.752,0,.941.362,1.95.815,2.499.079.084.107.204.076.314-.083.347-.269,1.09-.304,1.242-.049.2-.159.243-.367.146-1.368-.636-2.222-2.635-2.222-4.241,0-3.455,2.509-6.627,7.234-6.627,3.799,0,6.751,2.707,6.751,6.324,0,3.774-2.379,6.812-5.682,6.812-1.11,0-2.152-.577-2.51-1.259,0,0-.549,2.092-.682,2.603-.258.994-.975,2.251-1.42,2.965,1.025.315,2.112.485,3.24.485,6.075,0,11-4.925,11-11S18.075,1,12,1,1,5.925,1,12" /></symbol><symbol id="twitter" viewBox="0 0 24 24"><path d="m14.093,10.315L22.283,1h-1.941l-7.111,8.089L7.551,1H1l8.589,12.231L1,23h1.941l7.51-8.542,5.998,8.542h6.551l-8.907-12.685h0Zm-2.658,3.024l-.87-1.218L3.64,2.43h2.981l5.588,7.821.87,1.218,7.264,10.166h-2.981l-5.927-8.296h0Z" /></symbol></svg>